HIERARCHY
ROOT joint_0
{
	OFFSET 0.000000 0.000000 0.000000
	CHANNELS 6 Xposition Yposition Zposition Zrotation Yrotation Xrotation 
	JOINT joint_1
	{
		OFFSET 7.566162 2.250183 114.799927
		CHANNELS 3 Zrotation Yrotation Xrotation
		JOINT joint_2
		{
			OFFSET -5.201660 -0.414001 104.936035
			CHANNELS 3 Zrotation Yrotation Xrotation
			JOINT joint_3
			{
				OFFSET -6.923584 -0.419739 104.718018
				CHANNELS 3 Zrotation Yrotation Xrotation
				JOINT joint_4
				{
					OFFSET 3.108887 2.881104 149.449951
					CHANNELS 3 Zrotation Yrotation Xrotation
					JOINT joint_5
					{
						OFFSET 19.988770 5.920349 90.786987
						CHANNELS 3 Zrotation Yrotation Xrotation
						End Site
						{
							OFFSET 0.000000 0.000000 0.000000
						}
					}
				}
				JOINT joint_6
				{
					OFFSET 9.283936 -30.015930 84.410034
					CHANNELS 3 Zrotation Yrotation Xrotation
					JOINT joint_7
					{
						OFFSET 47.243164 -155.716736 -23.241089
						CHANNELS 3 Zrotation Yrotation Xrotation
						JOINT joint_8
						{
							OFFSET 31.323730 -15.356873 -268.798950
							CHANNELS 3 Zrotation Yrotation Xrotation
							JOINT joint_9
							{
								OFFSET 28.122314 -2.114624 -262.450012
								CHANNELS 3 Zrotation Yrotation Xrotation
								End Site
								{
									OFFSET 0.000000 0.000000 0.000000
								}
							}
						}
					}
				}
				JOINT joint_10
				{
					OFFSET -5.580566 33.311218 83.498047
					CHANNELS 3 Zrotation Yrotation Xrotation
					JOINT joint_11
					{
						OFFSET -22.773438 160.515381 -27.138062
						CHANNELS 3 Zrotation Yrotation Xrotation
						JOINT joint_12
						{
							OFFSET 27.004395 30.848877 -267.937988
							CHANNELS 3 Zrotation Yrotation Xrotation
							JOINT joint_13
							{
								OFFSET 32.625000 14.824585 -261.518005
								CHANNELS 3 Zrotation Yrotation Xrotation
								End Site
								{
									OFFSET 0.000000 0.000000 0.000000
								}
							}
						}
					}
				}
			}
		}
	}
	JOINT joint_14
	{
		OFFSET 20.623535 -83.447632 -106.174011
		CHANNELS 3 Zrotation Yrotation Xrotation
		JOINT joint_15
		{
			OFFSET 0.661865 -23.563843 -459.915039
			CHANNELS 3 Zrotation Yrotation Xrotation
			JOINT joint_16
			{
				OFFSET -23.461670 -28.727966 -444.760971
				CHANNELS 3 Zrotation Yrotation Xrotation
				JOINT joint_17
				{
					OFFSET 178.992920 54.047363 -80.113001
					CHANNELS 3 Zrotation Yrotation Xrotation
					End Site
					{
						OFFSET 0.000000 0.000000 0.000000
					}
				}
			}
		}
	}
	JOINT joint_18
	{
		OFFSET -19.571533 84.686279 -105.380005
		CHANNELS 3 Zrotation Yrotation Xrotation
		JOINT joint_19
		{
			OFFSET -22.949951 3.639404 -459.933044
			CHANNELS 3 Zrotation Yrotation Xrotation
			JOINT joint_20
			{
				OFFSET -33.690674 4.092651 -445.010971
				CHANNELS 3 Zrotation Yrotation Xrotation
				JOINT joint_21
				{
					OFFSET 187.419678 18.953857 -76.759001
					CHANNELS 3 Zrotation Yrotation Xrotation
					End Site
					{
						OFFSET 0.000000 0.000000 0.000000
					}
				}
			}
		}
	}
}
MOTION
Frames: 7
Frame Time: 0.016667
-3575.271729 941.454651 1111.317993 -14.517407 1.022939 -1.459373 0.239714 1.902948 2.147125 0.055983 -0.294564 -0.496568 0.110153 0.358805 0.313000 0.120465 -0.869790 -0.297571 0.000000 0.000000 0.000000 1.515579 2.718468 -0.548276 0.208677 3.448556 1.131818 0.220448 0.716665 1.979682 0.000000 0.000000 0.000000 3.035244 4.446566 -0.272377 -0.271096 3.239342 -5.022228 -0.056123 2.532670 -2.237524 0.000000 0.000000 0.000000 -0.818785 0.694495 3.133537 -0.778652 -1.003490 -0.540832 -0.810895 -1.227562 0.007107 0.000000 0.000000 0.000000 1.946677 -1.558600 -0.658891 1.901331 3.185162 0.753933 1.801063 -1.554150 0.893322 0.000000 0.000000 0.000000 
-3574.993408 941.440063 1111.243042 -14.446269 1.457934 -1.565866 0.211363 2.354344 2.017767 0.014242 -0.415591 -0.483068 0.066056 0.512568 0.288817 0.127425 -1.803192 -0.046801 0.000000 0.000000 0.000000 1.779079 2.696377 -0.691664 0.227258 3.522711 1.176644 0.302659 0.247591 2.526118 0.000000 0.000000 0.000000 3.086254 4.499607 -0.061081 -0.285902 3.206954 -5.335865 -0.114053 1.919595 -2.266232 0.000000 0.000000 0.000000 -0.846481 0.234094 3.255465 -0.826758 -0.999689 -0.541907 -0.858559 -1.215573 -0.017781 0.000000 0.000000 0.000000 1.952355 -2.056598 -0.566792 1.914540 3.234898 0.721687 1.811347 -1.543882 0.896550 0.000000 0.000000 0.000000 
-3574.502197 941.306213 1111.100952 -14.355614 2.060419 -1.703698 0.196625 2.795879 1.835726 -0.016614 -0.549268 -0.450080 0.030347 0.671765 0.251405 0.137619 -2.952388 0.292923 0.000000 0.000000 0.000000 2.117346 2.681903 -0.911369 0.262119 3.658455 1.290668 0.403370 -0.251092 3.184144 0.000000 0.000000 0.000000 3.016445 4.605461 0.290524 -0.307035 3.204812 -5.816626 -0.177078 1.214627 -2.297228 0.000000 0.000000 0.000000 -0.890786 -0.381187 3.411139 -0.898546 -1.023834 -0.529237 -0.931360 -1.195806 -0.056224 0.000000 0.000000 0.000000 1.970656 -2.718156 -0.437287 1.943345 3.268325 0.665839 1.836207 -1.532687 0.905653 0.000000 0.000000 0.000000 
-3573.315918 941.082581 1110.994019 -14.297683 2.638812 -1.843365 0.211184 3.042251 1.679061 -0.013997 -0.622076 -0.412980 0.027811 0.751806 0.218467 0.139193 -3.751025 0.577950 0.000000 0.000000 0.000000 2.311121 2.665521 -1.013672 0.287642 3.698513 1.279717 0.474975 -0.339381 3.695540 0.000000 0.000000 0.000000 2.883209 4.662895 0.571988 -0.323340 3.209906 -6.062564 -0.223885 0.940465 -2.514443 0.000000 0.000000 0.000000 -0.973293 -0.914828 3.539099 -1.004518 -1.072556 -0.483950 -1.034201 -1.250798 -0.085550 0.000000 0.000000 0.000000 2.049695 -3.299777 -0.270942 2.036374 3.308835 0.587321 1.919264 -1.672554 0.953785 0.000000 0.000000 0.000000 
-3571.088379 940.769287 1110.985962 -14.304842 3.157538 -1.987665 0.271483 2.903266 1.594741 0.050058 -0.611334 -0.374940 0.087044 0.733342 0.193094 0.114452 -3.886103 0.737853 0.000000 0.000000 0.000000 2.251706 2.641916 -0.878765 0.292127 3.548176 1.020998 0.490243 0.392016 3.945056 0.000000 0.000000 0.000000 2.647429 4.618042 0.677967 -0.333112 3.221744 -5.839221 -0.245718 1.499591 -3.126634 0.000000 0.000000 0.000000 -1.128542 -1.282448 3.611274 -1.170036 -1.195356 -0.367176 -1.191787 -1.423170 -0.103975 0.000000 0.000000 0.000000 2.241461 -3.726681 -0.036945 2.248804 3.348924 0.473166 2.111558 -2.076138 1.073200 0.000000 0.000000 0.000000 
-3568.165771 940.366211 1111.011963 -14.345071 3.658591 -2.138554 0.357714 2.560113 1.541408 0.150299 -0.561068 -0.337456 0.182684 0.673021 0.168866 0.072880 -3.677187 0.842224 0.000000 0.000000 0.000000 2.064040 2.614304 -0.609384 0.290750 3.290430 0.618279 0.483551 1.540868 4.060673 0.000000 0.000000 0.000000 2.325588 4.515686 0.701445 -0.329094 3.239393 -5.366715 -0.245423 2.484314 -3.934695 0.000000 0.000000 0.000000 -1.322656 -1.576427 3.661967 -1.368626 -1.340201 -0.215449 -1.378489 -1.668354 -0.113444 0.000000 0.000000 0.000000 2.492083 -4.083919 0.236102 2.524392 3.397321 0.336935 2.361066 -2.628788 1.231022 0.000000 0.000000 0.000000 
-3565.107910 939.900879 1110.984985 -14.370313 4.071756 -2.267665 0.430402 2.384816 1.462369 0.231469 -0.530013 -0.304376 0.259697 0.640243 0.144821 0.034847 -3.515787 0.948308 0.000000 0.000000 0.000000 1.897158 2.576387 -0.351645 0.281696 3.030763 0.220278 0.486692 2.338771 4.160327 0.000000 0.000000 0.000000 2.032820 4.399478 0.738139 -0.310555 3.232272 -4.933312 -0.237809 3.194041 -4.511970 0.000000 0.000000 0.000000 -1.475686 -1.831112 3.724868 -1.532829 -1.351308 -0.126039 -1.522431 -1.941151 -0.095433 0.000000 0.000000 0.000000 2.692456 -4.373750 0.462855 2.746494 3.505086 0.219856 2.558533 -3.150076 1.364307 0.000000 0.000000 0.000000 
